0
SECTION
2
HEADER
9
$INSUNITS
70
4
0
ENDSEC
0
SECTION
2
TABLES
0
TABLE
2
LTYPE
0
LTYPE
72
65
70
64
2
CONTINUOUS
3
______
73
0
40
0
0
ENDTAB
0
TABLE
2
LAYER
0
ENDTAB
0
ENDSEC
0
SECTION
2
ENTITIES
0
LINE
8
0
10
88.3319885
20
-106.872984
11
97.8760536
21
-109.3412471
0
LINE
8
0
10
88.3319885
20
-106.872984
11
97.8760536
21
-69.9688228
0
LINE
8
0
10
128.6379912
20
-48.3022757
11
138.4038627
21
-51.7605522
0
LINE
8
0
10
128.6379912
20
-48.3022757
11
127.4133512
21
-51.7605522
0
LINE
8
0
10
331.3760536
20
-109.3412471
11
340.9201187
21
-106.872984
0
LINE
8
0
10
331.3760536
20
-69.9688228
11
340.9201187
21
-106.872984
0
LINE
8
0
10
301.838756
20
-51.7605522
11
300.614116
21
-48.3022757
0
LINE
8
0
10
290.8482445
20
-51.7605522
11
300.614116
21
-48.3022757
0
LINE
8
0
10
130.9680595
20
-130.1755522
11
186.1977057
21
-171.7940758
0
LINE
8
0
10
186.1977057
20
-171.7940758
11
202.5231418
21
-150.1294903
0
LINE
8
0
10
176.0433717
20
-130.1755522
11
202.5231418
21
-150.1294903
0
LINE
8
0
10
243.0544015
20
-171.7940758
11
298.2840477
21
-130.1755522
0
LINE
8
0
10
226.7289654
20
-150.1294903
11
243.0544015
21
-171.7940758
0
LINE
8
0
10
226.7289654
20
-150.1294903
11
253.2087355
21
-130.1755522
0
LINE
8
0
10
97.8760536
20
-130.1755522
11
130.9680595
21
-130.1755522
0
LINE
8
0
10
176.0433717
20
-130.1755522
11
253.2087355
21
-130.1755522
0
LINE
8
0
10
298.2840477
20
-130.1755522
11
331.3760536
21
-130.1755522
0
LINE
8
0
10
331.3760536
20
-130.1755522
11
331.3760536
21
-109.3412471
0
LINE
8
0
10
331.3760536
20
-69.9688228
11
331.3760536
21
-51.7605522
0
LINE
8
0
10
331.3760536
20
-51.7605522
11
301.838756
21
-51.7605522
0
LINE
8
0
10
127.4133512
20
-51.7605522
11
97.8760536
21
-51.7605522
0
LINE
8
0
10
290.8482445
20
-51.7605522
11
220.6260536
21
-51.7605522
0
LINE
8
0
10
208.6260536
20
-51.7605522
11
138.4038627
21
-51.7605522
0
LINE
8
0
10
97.8760536
20
-51.7605522
11
97.8760536
21
-69.9688228
0
LINE
8
0
10
97.8760536
20
-109.3412471
11
97.8760536
21
-130.1755522
0
LINE
8
0
10
208.6260536
20
-53.3610522
11
220.6260536
21
-53.3610522
0
LINE
8
0
10
220.6260536
20
-53.3610522
11
220.6260536
21
-51.7605522
0
LINE
8
0
10
208.6260536
20
-51.7605522
11
208.6260536
21
-53.3610522
0
LINE
8
0
10
198.4760536
20
-118.0890522
11
230.7760536
21
-118.0890522
0
LINE
8
0
10
230.7760536
20
-118.0890522
11
230.7760536
21
-104.7890522
0
LINE
8
0
10
230.7760536
20
-104.7890522
11
198.4760536
21
-104.7890522
0
LINE
8
0
10
198.4760536
20
-104.7890522
11
198.4760536
21
-118.0890522
0
CIRCLE
8
0
10
100
20
-100
40
2.8
0
CIRCLE
8
0
10
104.6320301
20
-82.0892687
40
2.8
0
CIRCLE
8
0
10
109.2640602
20
-64.1785374
40
2.8
0
CIRCLE
8
0
10
122.1170334
20
-95.4026421
40
2.8
0
CIRCLE
8
0
10
128.2924603
20
-77.9637745
40
2.8
0
CIRCLE
8
0
10
134.4678872
20
-60.5249069
40
2.8
0
CIRCLE
8
0
10
141.9712838
20
-99.2508548
40
2.8
0
CIRCLE
8
0
10
148.9015058
20
-82.0979535
40
2.8
0
CIRCLE
8
0
10
155.8317278
20
-64.9450522
40
2.8
0
CIRCLE
8
0
10
158.8385638
20
-108.2227478
40
2.8
0
CIRCLE
8
0
10
165.7687858
20
-91.0698465
40
2.8
0
CIRCLE
8
0
10
172.6990078
20
-73.9169452
40
2.8
0
CIRCLE
8
0
10
175.242252
20
-117.0073376
40
2.8
0
CIRCLE
8
0
10
182.172474
20
-99.8544363
40
2.8
0
CIRCLE
8
0
10
189.102696
20
-82.701535
40
2.8
0
CIRCLE
8
0
10
329.2521072
20
-100
40
2.8
0
CIRCLE
8
0
10
324.6200771
20
-82.0892687
40
2.8
0
CIRCLE
8
0
10
319.988047
20
-64.1785374
40
2.8
0
CIRCLE
8
0
10
307.1350738
20
-95.4026421
40
2.8
0
CIRCLE
8
0
10
300.9596469
20
-77.9637745
40
2.8
0
CIRCLE
8
0
10
294.78422
20
-60.5249069
40
2.8
0
CIRCLE
8
0
10
287.2808234
20
-99.2508548
40
2.8
0
CIRCLE
8
0
10
280.3506014
20
-82.0979535
40
2.8
0
CIRCLE
8
0
10
273.4203794
20
-64.9450522
40
2.8
0
CIRCLE
8
0
10
270.4135434
20
-108.2227478
40
2.8
0
CIRCLE
8
0
10
263.4833214
20
-91.0698465
40
2.8
0
CIRCLE
8
0
10
256.5530994
20
-73.9169452
40
2.8
0
CIRCLE
8
0
10
254.0098552
20
-117.0073376
40
2.8
0
CIRCLE
8
0
10
247.0796332
20
-99.8544363
40
2.8
0
CIRCLE
8
0
10
240.1494112
20
-82.701535
40
2.8
0
CIRCLE
8
0
10
156.8265956
20
-130.4015101
40
2.8
0
CIRCLE
8
0
10
171.878187
20
-143.7877057
40
2.8
0
CIRCLE
8
0
10
184.3130511
20
-158.3840617
40
2.8
0
CIRCLE
8
0
10
272.4255116
20
-130.4015101
40
2.8
0
CIRCLE
8
0
10
257.3739202
20
-143.7877057
40
2.8
0
CIRCLE
8
0
10
244.9390561
20
-158.3840617
40
2.8
0
CIRCLE
8
0
10
105.324812
20
-101.37709
40
1
0
CIRCLE
8
0
10
109.9568421
20
-83.4663587
40
1
0
CIRCLE
8
0
10
114.5888722
20
-65.5556274
40
1
0
CIRCLE
8
0
10
127.3015616
20
-97.2385798
40
1
0
CIRCLE
8
0
10
133.4769885
20
-79.7997122
40
1
0
CIRCLE
8
0
10
139.6524154
20
-62.3608446
40
1
0
CIRCLE
8
0
10
147.070795
20
-101.3111911
40
1
0
CIRCLE
8
0
10
154.001017
20
-84.1582898
40
1
0
CIRCLE
8
0
10
160.931239
20
-67.0053885
40
1
0
CIRCLE
8
0
10
163.938075
20
-110.2830841
40
1
0
CIRCLE
8
0
10
170.868297
20
-93.1301828
40
1
0
CIRCLE
8
0
10
177.798519
20
-75.9772815
40
1
0
CIRCLE
8
0
10
180.3417632
20
-119.0676739
40
1
0
CIRCLE
8
0
10
187.2719852
20
-101.9147726
40
1
0
CIRCLE
8
0
10
194.2022072
20
-84.7618713
40
1
0
CIRCLE
8
0
10
323.9272952
20
-101.37709
40
1
0
CIRCLE
8
0
10
319.2952651
20
-83.4663587
40
1
0
CIRCLE
8
0
10
314.663235
20
-65.5556274
40
1
0
CIRCLE
8
0
10
301.9505456
20
-97.2385798
40
1
0
CIRCLE
8
0
10
295.7751187
20
-79.7997122
40
1
0
CIRCLE
8
0
10
289.5996918
20
-62.3608446
40
1
0
CIRCLE
8
0
10
282.1813122
20
-101.3111911
40
1
0
CIRCLE
8
0
10
275.2510902
20
-84.1582898
40
1
0
CIRCLE
8
0
10
268.3208682
20
-67.0053885
40
1
0
CIRCLE
8
0
10
265.3140322
20
-110.2830841
40
1
0
CIRCLE
8
0
10
258.3838102
20
-93.1301828
40
1
0
CIRCLE
8
0
10
251.4535882
20
-75.9772815
40
1
0
CIRCLE
8
0
10
248.910344
20
-119.0676739
40
1
0
CIRCLE
8
0
10
241.980122
20
-101.9147726
40
1
0
CIRCLE
8
0
10
235.0499
20
-84.7618713
40
1
0
CIRCLE
8
0
10
161.0088284
20
-133.9734744
40
1
0
CIRCLE
8
0
10
176.2706823
20
-147.0976883
40
1
0
CIRCLE
8
0
10
188.7055464
20
-161.6940443
40
1
0
CIRCLE
8
0
10
268.2432788
20
-133.9734744
40
1
0
CIRCLE
8
0
10
252.9814249
20
-147.0976883
40
1
0
CIRCLE
8
0
10
240.5465608
20
-161.6940443
40
1
0
CIRCLE
8
0
10
94.675188
20
-98.62291
40
1
0
CIRCLE
8
0
10
99.3072181
20
-80.7121787
40
1
0
CIRCLE
8
0
10
103.9392482
20
-62.8014474
40
1
0
CIRCLE
8
0
10
116.9325052
20
-93.5667044
40
1
0
CIRCLE
8
0
10
123.1079321
20
-76.1278368
40
1
0
CIRCLE
8
0
10
129.283359
20
-58.6889692
40
1
0
CIRCLE
8
0
10
136.8717726
20
-97.1905185
40
1
0
CIRCLE
8
0
10
143.8019946
20
-80.0376172
40
1
0
CIRCLE
8
0
10
150.7322166
20
-62.8847159
40
1
0
CIRCLE
8
0
10
153.7390526
20
-106.1624115
40
1
0
CIRCLE
8
0
10
160.6692746
20
-89.0095102
40
1
0
CIRCLE
8
0
10
167.5994966
20
-71.8566089
40
1
0
CIRCLE
8
0
10
170.1427408
20
-114.9470013
40
1
0
CIRCLE
8
0
10
177.0729628
20
-97.7941
40
1
0
CIRCLE
8
0
10
184.0031848
20
-80.6411987
40
1
0
CIRCLE
8
0
10
334.5769192
20
-98.62291
40
1
0
CIRCLE
8
0
10
329.9448891
20
-80.7121787
40
1
0
CIRCLE
8
0
10
325.312859
20
-62.8014474
40
1
0
CIRCLE
8
0
10
312.319602
20
-93.5667044
40
1
0
CIRCLE
8
0
10
306.1441751
20
-76.1278368
40
1
0
CIRCLE
8
0
10
299.9687482
20
-58.6889692
40
1
0
CIRCLE
8
0
10
292.3803346
20
-97.1905185
40
1
0
CIRCLE
8
0
10
285.4501126
20
-80.0376172
40
1
0
CIRCLE
8
0
10
278.5198906
20
-62.8847159
40
1
0
CIRCLE
8
0
10
275.5130546
20
-106.1624115
40
1
0
CIRCLE
8
0
10
268.5828326
20
-89.0095102
40
1
0
CIRCLE
8
0
10
261.6526106
20
-71.8566089
40
1
0
CIRCLE
8
0
10
259.1093664
20
-114.9470013
40
1
0
CIRCLE
8
0
10
252.1791444
20
-97.7941
40
1
0
CIRCLE
8
0
10
245.2489224
20
-80.6411987
40
1
0
CIRCLE
8
0
10
152.6443628
20
-126.8295458
40
1
0
CIRCLE
8
0
10
167.4856917
20
-140.4777231
40
1
0
CIRCLE
8
0
10
179.9205558
20
-155.0740791
40
1
0
CIRCLE
8
0
10
276.6077444
20
-126.8295458
40
1
0
CIRCLE
8
0
10
261.7664155
20
-140.4777231
40
1
0
CIRCLE
8
0
10
249.3315514
20
-155.0740791
40
1
0
ENDSEC
0
EOF