0
SECTION
2
HEADER
9
$INSUNITS
70
4
0
ENDSEC
0
SECTION
2
TABLES
0
TABLE
2
LTYPE
0
LTYPE
72
65
70
64
2
CONTINUOUS
3
______
73
0
40
0
0
ENDTAB
0
TABLE
2
LAYER
0
ENDTAB
0
ENDSEC
0
SECTION
2
ENTITIES
0
LINE
8
0
10
88.3319885
20
-106.872984
11
97.8760536
21
-109.3412471
0
LINE
8
0
10
88.3319885
20
-106.872984
11
97.8760536
21
-69.9688228
0
LINE
8
0
10
128.6379912
20
-48.3022757
11
138.4038627
21
-51.7605522
0
LINE
8
0
10
128.6379912
20
-48.3022757
11
127.4133512
21
-51.7605522
0
LINE
8
0
10
331.3760536
20
-109.3412471
11
340.9201187
21
-106.872984
0
LINE
8
0
10
331.3760536
20
-69.9688228
11
340.9201187
21
-106.872984
0
LINE
8
0
10
301.838756
20
-51.7605522
11
300.614116
21
-48.3022757
0
LINE
8
0
10
290.8482445
20
-51.7605522
11
300.614116
21
-48.3022757
0
LINE
8
0
10
130.9680595
20
-130.1755522
11
186.1977057
21
-171.7940758
0
LINE
8
0
10
186.1977057
20
-171.7940758
11
202.5231418
21
-150.1294903
0
LINE
8
0
10
176.0433717
20
-130.1755522
11
202.5231418
21
-150.1294903
0
LINE
8
0
10
243.0544015
20
-171.7940758
11
298.2840477
21
-130.1755522
0
LINE
8
0
10
226.7289654
20
-150.1294903
11
243.0544015
21
-171.7940758
0
LINE
8
0
10
226.7289654
20
-150.1294903
11
253.2087355
21
-130.1755522
0
LINE
8
0
10
97.8760536
20
-130.1755522
11
130.9680595
21
-130.1755522
0
LINE
8
0
10
176.0433717
20
-130.1755522
11
253.2087355
21
-130.1755522
0
LINE
8
0
10
298.2840477
20
-130.1755522
11
331.3760536
21
-130.1755522
0
LINE
8
0
10
331.3760536
20
-130.1755522
11
331.3760536
21
-109.3412471
0
LINE
8
0
10
331.3760536
20
-69.9688228
11
331.3760536
21
-51.7605522
0
LINE
8
0
10
331.3760536
20
-51.7605522
11
301.838756
21
-51.7605522
0
LINE
8
0
10
127.4133512
20
-51.7605522
11
97.8760536
21
-51.7605522
0
LINE
8
0
10
290.8482445
20
-51.7605522
11
220.6260536
21
-51.7605522
0
LINE
8
0
10
208.6260536
20
-51.7605522
11
138.4038627
21
-51.7605522
0
LINE
8
0
10
97.8760536
20
-51.7605522
11
97.8760536
21
-69.9688228
0
LINE
8
0
10
97.8760536
20
-109.3412471
11
97.8760536
21
-130.1755522
0
LINE
8
0
10
208.6260536
20
-53.3610522
11
220.6260536
21
-53.3610522
0
LINE
8
0
10
220.6260536
20
-53.3610522
11
220.6260536
21
-47.3610522
0
LINE
8
0
10
208.6260536
20
-53.3610522
11
208.6260536
21
-47.3610522
0
LINE
8
0
10
198.4760536
20
-118.0890522
11
230.7760536
21
-118.0890522
0
LINE
8
0
10
230.7760536
20
-118.0890522
11
230.7760536
21
-104.7890522
0
LINE
8
0
10
198.4760536
20
-104.7890522
11
230.7760536
21
-104.7890522
0
LINE
8
0
10
198.4760536
20
-118.0890522
11
198.4760536
21
-104.7890522
0
LINE
8
0
10
87.6202597
20
-107.2306746
11
107.3220642
21
-112.3259077
0
LINE
8
0
10
107.3220642
20
-112.3259077
11
110.0342944
21
-101.8384917
0
LINE
8
0
10
87.6202597
20
-107.2306746
11
101.941996
21
-51.8526297
0
LINE
8
0
10
101.941996
20
-51.8526297
11
124.6638678
21
-57.7289053
0
LINE
8
0
10
110.0342944
20
-101.8384917
11
128.3369613
21
-108.319806
0
LINE
8
0
10
128.3369613
20
-108.319806
11
129.4783627
21
-105.0965879
0
LINE
8
0
10
128.2479593
20
-47.607743
11
148.9066584
21
-54.9233721
0
LINE
8
0
10
128.2479593
20
-47.607743
11
124.6638678
21
-57.7289053
0
LINE
8
0
10
129.4783627
20
-105.0965879
11
146.3701547
21
-111.9213149
0
LINE
8
0
10
168.3001369
20
-61.2464851
11
169.0493501
21
-59.3921174
0
LINE
8
0
10
169.0493501
20
-59.3921174
11
150.1811587
21
-51.7688732
0
LINE
8
0
10
150.1811587
20
-51.7688732
11
148.9066584
21
-54.9233721
0
LINE
8
0
10
145.6209415
20
-113.7756826
11
156.2715646
21
-118.0788137
0
LINE
8
0
10
146.3701547
20
-111.9213149
11
145.6209415
21
-113.7756826
0
LINE
8
0
10
185.1674169
20
-70.2183781
11
185.9166301
21
-68.3640104
0
LINE
8
0
10
185.9166301
20
-68.3640104
11
168.3001369
21
-61.2464851
0
LINE
8
0
10
172.3539808
20
-126.7336011
11
180.8928211
21
-130.1835166
0
LINE
8
0
10
180.8928211
20
-130.1835166
11
202.3203183
21
-77.1486002
0
LINE
8
0
10
202.3203183
20
-77.1486002
11
185.1674169
21
-70.2183781
0
LINE
8
0
10
321.930043
20
-112.3259077
11
341.6318475
21
-107.2306746
0
LINE
8
0
10
327.3101112
20
-51.8526297
11
341.6318475
21
-107.2306746
0
LINE
8
0
10
319.2178128
20
-101.8384917
11
321.930043
21
-112.3259077
0
LINE
8
0
10
304.5882394
20
-57.7289053
11
327.3101112
21
-51.8526297
0
LINE
8
0
10
300.9151459
20
-108.319806
11
319.2178128
21
-101.8384917
0
LINE
8
0
10
299.7737445
20
-105.0965879
11
300.9151459
21
-108.319806
0
LINE
8
0
10
304.5882394
20
-57.7289053
11
301.0041479
21
-47.607743
0
LINE
8
0
10
280.3454488
20
-54.9233721
11
301.0041479
21
-47.607743
0
LINE
8
0
10
282.8819525
20
-111.9213149
11
299.7737445
21
-105.0965879
0
LINE
8
0
10
280.3454488
20
-54.9233721
11
279.0709485
21
-51.7688732
0
LINE
8
0
10
279.0709485
20
-51.7688732
11
260.2027571
21
-59.3921174
0
LINE
8
0
10
260.2027571
20
-59.3921174
11
260.9519703
21
-61.2464851
0
LINE
8
0
10
272.9805426
20
-118.0788137
11
283.6311657
21
-113.7756826
0
LINE
8
0
10
283.6311657
20
-113.7756826
11
282.8819525
21
-111.9213149
0
LINE
8
0
10
260.9519703
20
-61.2464851
11
243.3354771
21
-68.3640104
0
LINE
8
0
10
243.3354771
20
-68.3640104
11
244.0846903
21
-70.2183781
0
LINE
8
0
10
248.3592861
20
-130.1835166
11
256.8981264
21
-126.7336011
0
LINE
8
0
10
226.9317889
20
-77.1486002
11
248.3592861
21
-130.1835166
0
LINE
8
0
10
244.0846903
20
-70.2183781
11
226.9317889
21
-77.1486002
0
LINE
8
0
10
157.673739
20
-145.7304565
11
172.6203865
21
-156.9935633
0
LINE
8
0
10
183.5708516
20
-145.1782041
11
186.082635
21
-141.8449549
0
LINE
8
0
10
186.082635
20
-141.8449549
11
169.8773326
21
-129.6333836
0
LINE
8
0
10
159.1244398
20
-143.8053115
11
157.673739
21
-145.7304565
0
LINE
8
0
10
170.1086031
20
-160.3268125
11
186.3608357
21
-172.5737482
0
LINE
8
0
10
186.3608357
20
-172.5737482
11
198.5174991
21
-156.4413109
0
LINE
8
0
10
198.5174991
20
-156.4413109
11
183.5708516
21
-145.1782041
0
LINE
8
0
10
172.6203865
20
-156.9935633
11
170.1086031
21
-160.3268125
0
LINE
8
0
10
256.6317207
20
-156.9935633
11
271.5783682
21
-145.7304565
0
LINE
8
0
10
271.5783682
20
-145.7304565
11
270.1276674
21
-143.8053115
0
LINE
8
0
10
259.3747746
20
-129.6333836
11
243.1694722
21
-141.8449549
0
LINE
8
0
10
243.1694722
20
-141.8449549
11
245.6812556
21
-145.1782041
0
LINE
8
0
10
242.8912715
20
-172.5737482
11
259.1435041
21
-160.3268125
0
LINE
8
0
10
259.1435041
20
-160.3268125
11
256.6317207
21
-156.9935633
0
LINE
8
0
10
245.6812556
20
-145.1782041
11
230.7346081
21
-156.4413109
0
LINE
8
0
10
230.7346081
20
-156.4413109
11
242.8912715
21
-172.5737482
0
LINE
8
0
10
144.7699773
20
-131.5454422
11
159.1244398
21
-143.8053115
0
LINE
8
0
10
144.7699773
20
-131.5454422
11
156.2715646
21
-118.0788137
0
LINE
8
0
10
270.1276674
20
-143.8053115
11
284.4821299
21
-131.5454422
0
LINE
8
0
10
272.9805426
20
-118.0788137
11
284.4821299
21
-131.5454422
0
LINE
8
0
10
169.8773326
20
-129.6333836
11
172.3539808
21
-126.7336011
0
LINE
8
0
10
256.8981264
20
-126.7336011
11
259.3747746
21
-129.6333836
0
LINE
8
0
10
204.7360536
20
-87.3810522
11
224.5160536
21
-87.3810522
0
LINE
8
0
10
224.5160536
20
-87.3810522
11
224.5160536
21
-52.3610522
0
LINE
8
0
10
224.5160536
20
-52.3610522
11
220.6260536
21
-52.3610522
0
LINE
8
0
10
208.6260536
20
-52.3610522
11
204.7360536
21
-52.3610522
0
LINE
8
0
10
204.7360536
20
-52.3610522
11
204.7360536
21
-87.3810522
0
LINE
8
0
10
220.6260536
20
-47.3610522
11
208.6260536
21
-47.3610522
0
LINE
8
0
10
218.2260536
20
-104.7890522
11
218.2260536
21
-96.4890522
0
LINE
8
0
10
218.2260536
20
-96.4890522
11
211.0260536
21
-96.4890522
0
LINE
8
0
10
211.0260536
20
-96.4890522
11
211.0260536
21
-104.7890522
0
LINE
8
0
10
227.2260536
20
-57.2492522
11
238.0260536
21
-57.2492522
0
LINE
8
0
10
238.0260536
20
-57.2492522
11
238.0260536
21
-50.6992522
0
LINE
8
0
10
238.0260536
20
-50.6992522
11
227.2260536
21
-50.6992522
0
LINE
8
0
10
227.2260536
20
-50.6992522
11
227.2260536
21
-57.2492522
0
LINE
8
0
10
113.9760536
20
-133.0255522
11
123.7760536
21
-133.0255522
0
LINE
8
0
10
123.7760536
20
-133.0255522
11
123.7760536
21
-124.6255522
0
LINE
8
0
10
123.7760536
20
-124.6255522
11
113.9760536
21
-124.6255522
0
LINE
8
0
10
113.9760536
20
-124.6255522
11
113.9760536
21
-133.0255522
0
ENDSEC
0
EOF