0
SECTION
2
HEADER
9
$INSUNITS
70
4
0
ENDSEC
0
SECTION
2
TABLES
0
TABLE
2
LTYPE
0
LTYPE
72
65
70
64
2
CONTINUOUS
3
______
73
0
40
0
0
ENDTAB
0
TABLE
2
LAYER
0
ENDTAB
0
ENDSEC
0
SECTION
2
ENTITIES
0
LINE
8
0
10
88.3319885
20
-106.872984
11
97.8760536
21
-109.3412471
0
LINE
8
0
10
88.3319885
20
-106.872984
11
97.8760536
21
-69.9688228
0
LINE
8
0
10
128.6379912
20
-48.3022757
11
138.4038627
21
-51.7605522
0
LINE
8
0
10
128.6379912
20
-48.3022757
11
127.4133512
21
-51.7605522
0
LINE
8
0
10
331.3760536
20
-109.3412471
11
340.9201187
21
-106.872984
0
LINE
8
0
10
331.3760536
20
-69.9688228
11
340.9201187
21
-106.872984
0
LINE
8
0
10
301.838756
20
-51.7605522
11
300.614116
21
-48.3022757
0
LINE
8
0
10
290.8482445
20
-51.7605522
11
300.614116
21
-48.3022757
0
LINE
8
0
10
130.9680595
20
-130.1755522
11
186.1977057
21
-171.7940758
0
LINE
8
0
10
186.1977057
20
-171.7940758
11
202.5231418
21
-150.1294903
0
LINE
8
0
10
176.0433717
20
-130.1755522
11
202.5231418
21
-150.1294903
0
LINE
8
0
10
243.0544015
20
-171.7940758
11
298.2840477
21
-130.1755522
0
LINE
8
0
10
226.7289654
20
-150.1294903
11
243.0544015
21
-171.7940758
0
LINE
8
0
10
226.7289654
20
-150.1294903
11
253.2087355
21
-130.1755522
0
LINE
8
0
10
97.8760536
20
-130.1755522
11
130.9680595
21
-130.1755522
0
LINE
8
0
10
176.0433717
20
-130.1755522
11
253.2087355
21
-130.1755522
0
LINE
8
0
10
298.2840477
20
-130.1755522
11
331.3760536
21
-130.1755522
0
LINE
8
0
10
331.3760536
20
-130.1755522
11
331.3760536
21
-109.3412471
0
LINE
8
0
10
331.3760536
20
-69.9688228
11
331.3760536
21
-51.7605522
0
LINE
8
0
10
331.3760536
20
-51.7605522
11
301.838756
21
-51.7605522
0
LINE
8
0
10
127.4133512
20
-51.7605522
11
97.8760536
21
-51.7605522
0
LINE
8
0
10
290.8482445
20
-51.7605522
11
220.6260536
21
-51.7605522
0
LINE
8
0
10
208.6260536
20
-51.7605522
11
138.4038627
21
-51.7605522
0
LINE
8
0
10
97.8760536
20
-51.7605522
11
97.8760536
21
-69.9688228
0
LINE
8
0
10
97.8760536
20
-109.3412471
11
97.8760536
21
-130.1755522
0
LINE
8
0
10
208.6260536
20
-53.3610522
11
220.6260536
21
-53.3610522
0
LINE
8
0
10
220.6260536
20
-53.3610522
11
220.6260536
21
-51.7605522
0
LINE
8
0
10
208.6260536
20
-51.7605522
11
208.6260536
21
-53.3610522
0
LINE
8
0
10
198.4760536
20
-118.0890522
11
230.7760536
21
-118.0890522
0
LINE
8
0
10
230.7760536
20
-118.0890522
11
230.7760536
21
-104.7890522
0
LINE
8
0
10
230.7760536
20
-104.7890522
11
198.4760536
21
-104.7890522
0
LINE
8
0
10
198.4760536
20
-104.7890522
11
198.4760536
21
-118.0890522
0
ENDSEC
0
EOF