0
SECTION
2
HEADER
9
$INSUNITS
70
4
0
ENDSEC
0
SECTION
2
TABLES
0
TABLE
2
LTYPE
0
LTYPE
72
65
70
64
2
CONTINUOUS
3
______
73
0
40
0
0
ENDTAB
0
TABLE
2
LAYER
0
ENDTAB
0
ENDSEC
0
SECTION
2
ENTITIES
0
LINE
8
0
10
88.3319885
20
-106.872984
11
94.6260536
21
-108.5007399
0
LINE
8
0
10
88.3319885
20
-106.872984
11
94.6260536
21
-82.5356404
0
LINE
8
0
10
128.6379912
20
-48.3022757
11
140.5203436
21
-52.5100374
0
LINE
8
0
10
128.6379912
20
-48.3022757
11
127.1479446
21
-52.5100374
0
LINE
8
0
10
150.6154688
20
-52.5100374
11
150.5405242
21
-52.4797578
0
LINE
8
0
10
150.5405242
20
-52.4797578
11
150.5282904
21
-52.5100374
0
LINE
8
0
10
334.6260536
20
-108.5007399
11
340.9201187
21
-106.872984
0
LINE
8
0
10
334.6260536
20
-82.5356404
11
340.9201187
21
-106.872984
0
LINE
8
0
10
302.1041626
20
-52.5100374
11
300.614116
21
-48.3022757
0
LINE
8
0
10
288.7317636
20
-52.5100374
11
300.614116
21
-48.3022757
0
LINE
8
0
10
278.7238168
20
-52.5100374
11
278.711583
21
-52.4797578
0
LINE
8
0
10
278.711583
20
-52.4797578
11
278.6366384
21
-52.5100374
0
LINE
8
0
10
138.2715887
20
-135.6791563
11
185.6386608
21
-171.3728053
0
LINE
8
0
10
185.6386608
20
-171.3728053
11
201.9640969
21
-149.7082198
0
LINE
8
0
10
183.3467431
20
-135.6790374
11
201.9640969
21
-149.7082198
0
LINE
8
0
10
138.2715887
20
-135.6791563
11
138.2716783
21
-135.6790374
0
LINE
8
0
10
243.6134464
20
-171.3728053
11
290.9805185
21
-135.6791563
0
LINE
8
0
10
227.2880103
20
-149.7082198
11
243.6134464
21
-171.3728053
0
LINE
8
0
10
227.2880103
20
-149.7082198
11
245.9053641
21
-135.6790374
0
LINE
8
0
10
290.9804289
20
-135.6790374
11
290.9805185
21
-135.6791563
0
LINE
8
0
10
94.6260536
20
-135.6790374
11
138.2716783
21
-135.6790374
0
LINE
8
0
10
183.3467431
20
-135.6790374
11
245.9053641
21
-135.6790374
0
LINE
8
0
10
290.9804289
20
-135.6790374
11
334.6260536
21
-135.6790374
0
LINE
8
0
10
334.6260536
20
-135.6790374
11
334.6260536
21
-108.5007399
0
LINE
8
0
10
334.6260536
20
-82.5356404
11
334.6260536
21
-52.5100374
0
LINE
8
0
10
334.6260536
20
-52.5100374
11
302.1041626
21
-52.5100374
0
LINE
8
0
10
127.1479446
20
-52.5100374
11
94.6260536
21
-52.5100374
0
LINE
8
0
10
150.5282904
20
-52.5100374
11
140.5203436
21
-52.5100374
0
LINE
8
0
10
288.7317636
20
-52.5100374
11
278.7238168
21
-52.5100374
0
LINE
8
0
10
278.6366384
20
-52.5100374
11
150.6154688
21
-52.5100374
0
LINE
8
0
10
94.6260536
20
-52.5100374
11
94.6260536
21
-82.5356404
0
LINE
8
0
10
94.6260536
20
-108.5007399
11
94.6260536
21
-135.6790374
0
ENDSEC
0
EOF