0
SECTION
2
HEADER
9
$INSUNITS
70
4
0
ENDSEC
0
SECTION
2
TABLES
0
TABLE
2
LTYPE
0
LTYPE
72
65
70
64
2
CONTINUOUS
3
______
73
0
40
0
0
ENDTAB
0
TABLE
2
LAYER
0
ENDTAB
0
ENDSEC
0
SECTION
2
ENTITIES
0
LINE
8
0
10
87.9639932
20
-107.0897498
11
107.0897498
21
-112.0360068
0
LINE
8
0
10
107.0897498
20
-112.0360068
11
109.8087097
21
-101.5225691
0
LINE
8
0
10
87.9639932
20
-107.0897498
11
102.1743104
21
-52.1425306
0
LINE
8
0
10
102.1743104
20
-52.1425306
11
124.8784362
21
-58.0142168
0
LINE
8
0
10
109.8087097
20
-101.5225691
11
128.1307975
21
-108.0107607
0
LINE
8
0
10
128.1307975
20
-108.0107607
11
129.2766055
21
-104.7750987
0
LINE
8
0
10
124.8784362
20
-58.0142168
11
128.4541231
21
-47.9167883
0
LINE
8
0
10
128.4541231
20
-47.9167883
11
149.1039321
21
-55.2292692
0
LINE
8
0
10
129.2766055
20
-104.7750987
11
146.7293419
21
-111.8264619
0
LINE
8
0
10
167.9409497
20
-61.3413381
11
168.6901629
21
-59.4869703
0
LINE
8
0
10
168.6901629
20
-59.4869703
11
150.3736459
21
-52.0866171
0
LINE
8
0
10
150.3736459
20
-52.0866171
11
149.1039321
21
-55.2292692
0
LINE
8
0
10
145.9801287
20
-113.6808297
11
155.0038199
21
-117.3266376
0
LINE
8
0
10
146.7293419
20
-111.8264619
11
145.9801287
21
-113.6808297
0
LINE
8
0
10
184.8082297
20
-70.3132311
11
185.5574429
21
-68.4588633
0
LINE
8
0
10
167.9409497
20
-61.3413381
11
185.5574429
21
-68.4588633
0
LINE
8
0
10
178.1599685
20
-136.1533976
11
201.9611311
21
-77.2434531
0
LINE
8
0
10
184.8082297
20
-70.3132311
11
201.9611311
21
-77.2434531
0
LINE
8
0
10
322.1623574
20
-112.0360068
11
341.288114
21
-107.0897498
0
LINE
8
0
10
327.0777968
20
-52.1425306
11
341.288114
21
-107.0897498
0
LINE
8
0
10
319.4433975
20
-101.5225691
11
322.1623574
21
-112.0360068
0
LINE
8
0
10
304.373671
20
-58.0142168
11
327.0777968
21
-52.1425306
0
LINE
8
0
10
301.1213097
20
-108.0107607
11
319.4433975
21
-101.5225691
0
LINE
8
0
10
299.9755017
20
-104.7750987
11
301.1213097
21
-108.0107607
0
LINE
8
0
10
300.7979841
20
-47.9167883
11
304.373671
21
-58.0142168
0
LINE
8
0
10
280.1481751
20
-55.2292692
11
300.7979841
21
-47.9167883
0
LINE
8
0
10
282.5227653
20
-111.8264619
11
299.9755017
21
-104.7750987
0
LINE
8
0
10
280.1481751
20
-55.2292692
11
278.8784613
21
-52.0866171
0
LINE
8
0
10
278.8784613
20
-52.0866171
11
260.5619443
21
-59.4869703
0
LINE
8
0
10
260.5619443
20
-59.4869703
11
261.3111575
21
-61.3413381
0
LINE
8
0
10
274.2482873
20
-117.3266376
11
283.2719785
21
-113.6808297
0
LINE
8
0
10
283.2719785
20
-113.6808297
11
282.5227653
21
-111.8264619
0
LINE
8
0
10
243.6946643
20
-68.4588633
11
261.3111575
21
-61.3413381
0
LINE
8
0
10
243.6946643
20
-68.4588633
11
244.4438775
21
-70.3132311
0
LINE
8
0
10
227.2909761
20
-77.2434531
11
251.0921387
21
-136.1533976
0
LINE
8
0
10
227.2909761
20
-77.2434531
11
244.4438775
21
-70.3132311
0
LINE
8
0
10
142.9007626
20
-131.4974969
11
155.7461796
21
-142.4685195
0
LINE
8
0
10
142.9007626
20
-131.4974969
11
155.0038199
21
-117.3266376
0
LINE
8
0
10
155.0104219
20
-143.444903
11
172.4328396
21
-156.5736363
0
LINE
8
0
10
178.1599685
20
-136.1533976
11
187.5320261
21
-143.2157496
0
LINE
8
0
10
187.5320261
20
-143.2157496
11
185.0202426
21
-146.5489989
0
LINE
8
0
10
155.0104219
20
-143.444903
11
155.7461796
21
-142.4685195
0
LINE
8
0
10
169.9210561
20
-159.9068856
11
185.6981006
21
-171.7957413
0
LINE
8
0
10
185.6981006
20
-171.7957413
11
197.5869563
21
-156.0186968
0
LINE
8
0
10
197.5869563
20
-156.0186968
11
185.0202426
21
-146.5489989
0
LINE
8
0
10
172.4328396
20
-156.5736363
11
169.9210561
21
-159.9068856
0
LINE
8
0
10
273.5059276
20
-142.4685195
11
286.3513446
21
-131.4974969
0
LINE
8
0
10
274.2482873
20
-117.3266376
11
286.3513446
21
-131.4974969
0
LINE
8
0
10
256.8192676
20
-156.5736363
11
274.2416853
21
-143.444903
0
LINE
8
0
10
241.7200811
20
-143.2157496
11
251.0921387
21
-136.1533976
0
LINE
8
0
10
273.5059276
20
-142.4685195
11
274.2416853
21
-143.444903
0
LINE
8
0
10
244.2318646
20
-146.5489989
11
241.7200811
21
-143.2157496
0
LINE
8
0
10
243.5540066
20
-171.7957413
11
259.3310511
21
-159.9068856
0
LINE
8
0
10
259.3310511
20
-159.9068856
11
256.8192676
21
-156.5736363
0
LINE
8
0
10
244.2318646
20
-146.5489989
11
231.6651509
21
-156.0186968
0
LINE
8
0
10
231.6651509
20
-156.0186968
11
243.5540066
21
-171.7957413
0
ENDSEC
0
EOF