0
SECTION
2
HEADER
9
$INSUNITS
70
4
0
ENDSEC
0
SECTION
2
TABLES
0
TABLE
2
LTYPE
0
LTYPE
72
65
70
64
2
CONTINUOUS
3
______
73
0
40
0
0
ENDTAB
0
TABLE
2
LAYER
0
ENDTAB
0
ENDSEC
0
SECTION
2
ENTITIES
0
LINE
8
0
10
88.3319885
20
-106.872984
11
94.6260536
21
-108.5007399
0
LINE
8
0
10
88.3319885
20
-106.872984
11
94.6260536
21
-82.5356404
0
LINE
8
0
10
128.6379912
20
-48.3022757
11
140.5203436
21
-52.5100374
0
LINE
8
0
10
128.6379912
20
-48.3022757
11
127.1479446
21
-52.5100374
0
LINE
8
0
10
150.6154688
20
-52.5100374
11
150.5405242
21
-52.4797578
0
LINE
8
0
10
150.5405242
20
-52.4797578
11
150.5282904
21
-52.5100374
0
LINE
8
0
10
334.6260536
20
-108.5007399
11
340.9201187
21
-106.872984
0
LINE
8
0
10
334.6260536
20
-82.5356404
11
340.9201187
21
-106.872984
0
LINE
8
0
10
302.1041626
20
-52.5100374
11
300.614116
21
-48.3022757
0
LINE
8
0
10
288.7317636
20
-52.5100374
11
300.614116
21
-48.3022757
0
LINE
8
0
10
278.7238168
20
-52.5100374
11
278.711583
21
-52.4797578
0
LINE
8
0
10
278.711583
20
-52.4797578
11
278.6366384
21
-52.5100374
0
LINE
8
0
10
138.2715887
20
-135.6791563
11
185.6386608
21
-171.3728053
0
LINE
8
0
10
185.6386608
20
-171.3728053
11
201.9640969
21
-149.7082198
0
LINE
8
0
10
183.3467431
20
-135.6790374
11
201.9640969
21
-149.7082198
0
LINE
8
0
10
138.2715887
20
-135.6791563
11
138.2716783
21
-135.6790374
0
LINE
8
0
10
243.6134464
20
-171.3728053
11
290.9805185
21
-135.6791563
0
LINE
8
0
10
227.2880103
20
-149.7082198
11
243.6134464
21
-171.3728053
0
LINE
8
0
10
227.2880103
20
-149.7082198
11
245.9053641
21
-135.6790374
0
LINE
8
0
10
290.9804289
20
-135.6790374
11
290.9805185
21
-135.6791563
0
LINE
8
0
10
94.6260536
20
-135.6790374
11
138.2716783
21
-135.6790374
0
LINE
8
0
10
183.3467431
20
-135.6790374
11
245.9053641
21
-135.6790374
0
LINE
8
0
10
290.9804289
20
-135.6790374
11
334.6260536
21
-135.6790374
0
LINE
8
0
10
334.6260536
20
-135.6790374
11
334.6260536
21
-108.5007399
0
LINE
8
0
10
334.6260536
20
-82.5356404
11
334.6260536
21
-52.5100374
0
LINE
8
0
10
334.6260536
20
-52.5100374
11
302.1041626
21
-52.5100374
0
LINE
8
0
10
127.1479446
20
-52.5100374
11
94.6260536
21
-52.5100374
0
LINE
8
0
10
150.5282904
20
-52.5100374
11
140.5203436
21
-52.5100374
0
LINE
8
0
10
288.7317636
20
-52.5100374
11
278.7238168
21
-52.5100374
0
LINE
8
0
10
278.6366384
20
-52.5100374
11
150.6154688
21
-52.5100374
0
LINE
8
0
10
94.6260536
20
-52.5100374
11
94.6260536
21
-82.5356404
0
LINE
8
0
10
94.6260536
20
-108.5007399
11
94.6260536
21
-135.6790374
0
LINE
8
0
10
89.1058623
20
-106.4786872
11
106.3872977
21
-110.9479703
0
LINE
8
0
10
106.3872977
20
-110.9479703
11
110.8941377
21
-93.5213128
0
LINE
8
0
10
110.8941377
20
-93.5213128
11
93.6127023
21
-89.0520297
0
LINE
8
0
10
93.6127023
20
-89.0520297
11
89.1058623
21
-106.4786872
0
LINE
8
0
10
93.7378924
20
-88.5679559
11
111.0193278
21
-93.037239
0
LINE
8
0
10
111.0193278
20
-93.037239
11
115.5261678
21
-75.6105815
0
LINE
8
0
10
115.5261678
20
-75.6105815
11
98.2447324
21
-71.1412984
0
LINE
8
0
10
98.2447324
20
-71.1412984
11
93.7378924
21
-88.5679559
0
LINE
8
0
10
98.3699225
20
-70.6572246
11
115.6513579
21
-75.1265077
0
LINE
8
0
10
115.6513579
20
-75.1265077
11
120.1581979
21
-57.6998502
0
LINE
8
0
10
120.1581979
20
-57.6998502
11
102.8767625
21
-53.2305671
0
LINE
8
0
10
102.8767625
20
-53.2305671
11
98.3699225
21
-70.6572246
0
LINE
8
0
10
110.6996964
20
-100.9071893
11
127.525847
21
-106.8656417
0
LINE
8
0
10
127.525847
20
-106.8656417
11
133.5343704
21
-89.8980949
0
LINE
8
0
10
133.5343704
20
-89.8980949
11
116.7082198
21
-83.9396425
0
LINE
8
0
10
116.7082198
20
-83.9396425
11
110.6996964
21
-100.9071893
0
LINE
8
0
10
116.8751233
20
-83.4683217
11
133.7012739
21
-89.4267741
0
LINE
8
0
10
133.7012739
20
-89.4267741
11
139.7097973
21
-72.4592273
0
LINE
8
0
10
139.7097973
20
-72.4592273
11
122.8836467
21
-66.5007749
0
LINE
8
0
10
122.8836467
20
-66.5007749
11
116.8751233
21
-83.4683217
0
LINE
8
0
10
123.0505502
20
-66.0294541
11
139.8767008
21
-71.9879065
0
LINE
8
0
10
139.8767008
20
-71.9879065
11
145.8852242
21
-55.0203597
0
LINE
8
0
10
145.8852242
20
-55.0203597
11
129.0590736
21
-49.0619073
0
LINE
8
0
10
129.0590736
20
-49.0619073
11
123.0505502
21
-66.0294541
0
LINE
8
0
10
130.3247086
20
-104.2521456
11
146.8749404
21
-110.9388733
0
LINE
8
0
10
146.8749404
20
-110.9388733
11
153.617859
21
-94.249564
0
LINE
8
0
10
153.617859
20
-94.249564
11
137.0676272
21
-87.5628363
0
LINE
8
0
10
137.0676272
20
-87.5628363
11
130.3247086
21
-104.2521456
0
LINE
8
0
10
137.2549306
20
-87.0992443
11
153.8051624
21
-93.785972
0
LINE
8
0
10
153.8051624
20
-93.785972
11
160.548081
21
-77.0966627
0
LINE
8
0
10
160.548081
20
-77.0966627
11
143.9978492
21
-70.409935
0
LINE
8
0
10
143.9978492
20
-70.409935
11
137.2549306
21
-87.0992443
0
LINE
8
0
10
144.1851526
20
-69.946343
11
160.7353844
21
-76.6330707
0
LINE
8
0
10
160.7353844
20
-76.6330707
11
167.478303
21
-59.9437614
0
LINE
8
0
10
167.478303
20
-59.9437614
11
150.9280712
21
-53.2570337
0
LINE
8
0
10
150.9280712
20
-53.2570337
11
144.1851526
21
-69.946343
0
LINE
8
0
10
147.1919886
20
-113.2240386
11
163.7422204
21
-119.9107663
0
LINE
8
0
10
163.7422204
20
-119.9107663
11
170.485139
21
-103.221457
0
LINE
8
0
10
170.485139
20
-103.221457
11
153.9349072
21
-96.5347293
0
LINE
8
0
10
153.9349072
20
-96.5347293
11
147.1919886
21
-113.2240386
0
LINE
8
0
10
154.1222106
20
-96.0711373
11
170.6724424
21
-102.757865
0
LINE
8
0
10
170.6724424
20
-102.757865
11
177.415361
21
-86.0685557
0
LINE
8
0
10
177.415361
20
-86.0685557
11
160.8651292
21
-79.381828
0
LINE
8
0
10
160.8651292
20
-79.381828
11
154.1222106
21
-96.0711373
0
LINE
8
0
10
161.0524326
20
-78.918236
11
177.6026644
21
-85.6049637
0
LINE
8
0
10
177.6026644
20
-85.6049637
11
184.345583
21
-68.9156544
0
LINE
8
0
10
184.345583
20
-68.9156544
11
167.7953512
21
-62.2289267
0
LINE
8
0
10
167.7953512
20
-62.2289267
11
161.0524326
21
-78.918236
0
LINE
8
0
10
163.5956768
20
-122.0086284
11
180.1459086
21
-128.6953561
0
LINE
8
0
10
180.1459086
20
-128.6953561
11
186.8888272
21
-112.0060468
0
LINE
8
0
10
186.8888272
20
-112.0060468
11
170.3385954
21
-105.3193191
0
LINE
8
0
10
170.3385954
20
-105.3193191
11
163.5956768
21
-122.0086284
0
LINE
8
0
10
170.5258988
20
-104.8557271
11
187.0761306
21
-111.5424548
0
LINE
8
0
10
187.0761306
20
-111.5424548
11
193.8190492
21
-94.8531455
0
LINE
8
0
10
193.8190492
20
-94.8531455
11
177.2688174
21
-88.1664178
0
LINE
8
0
10
177.2688174
20
-88.1664178
11
170.5258988
21
-104.8557271
0
LINE
8
0
10
177.4561208
20
-87.7028258
11
194.0063526
21
-94.3895535
0
LINE
8
0
10
194.0063526
20
-94.3895535
11
200.7492712
21
-77.7002442
0
LINE
8
0
10
200.7492712
20
-77.7002442
11
184.1990394
21
-71.0135165
0
LINE
8
0
10
184.1990394
20
-71.0135165
11
177.4561208
21
-87.7028258
0
LINE
8
0
10
322.8648095
20
-110.9479703
11
340.1462449
21
-106.4786872
0
LINE
8
0
10
340.1462449
20
-106.4786872
11
335.6394049
21
-89.0520297
0
LINE
8
0
10
335.6394049
20
-89.0520297
11
318.3579695
21
-93.5213128
0
LINE
8
0
10
318.3579695
20
-93.5213128
11
322.8648095
21
-110.9479703
0
LINE
8
0
10
318.2327794
20
-93.037239
11
335.5142148
21
-88.5679559
0
LINE
8
0
10
335.5142148
20
-88.5679559
11
331.0073748
21
-71.1412984
0
LINE
8
0
10
331.0073748
20
-71.1412984
11
313.7259394
21
-75.6105815
0
LINE
8
0
10
313.7259394
20
-75.6105815
11
318.2327794
21
-93.037239
0
LINE
8
0
10
313.6007493
20
-75.1265077
11
330.8821847
21
-70.6572246
0
LINE
8
0
10
330.8821847
20
-70.6572246
11
326.3753447
21
-53.2305671
0
LINE
8
0
10
326.3753447
20
-53.2305671
11
309.0939093
21
-57.6998502
0
LINE
8
0
10
309.0939093
20
-57.6998502
11
313.6007493
21
-75.1265077
0
LINE
8
0
10
301.7262602
20
-106.8656417
11
318.5524108
21
-100.9071893
0
LINE
8
0
10
318.5524108
20
-100.9071893
11
312.5438874
21
-83.9396425
0
LINE
8
0
10
312.5438874
20
-83.9396425
11
295.7177368
21
-89.8980949
0
LINE
8
0
10
295.7177368
20
-89.8980949
11
301.7262602
21
-106.8656417
0
LINE
8
0
10
295.5508333
20
-89.4267741
11
312.3769839
21
-83.4683217
0
LINE
8
0
10
312.3769839
20
-83.4683217
11
306.3684605
21
-66.5007749
0
LINE
8
0
10
306.3684605
20
-66.5007749
11
289.5423099
21
-72.4592273
0
LINE
8
0
10
289.5423099
20
-72.4592273
11
295.5508333
21
-89.4267741
0
LINE
8
0
10
289.3754064
20
-71.9879065
11
306.201557
21
-66.0294541
0
LINE
8
0
10
306.201557
20
-66.0294541
11
300.1930336
21
-49.0619073
0
LINE
8
0
10
300.1930336
20
-49.0619073
11
283.366883
21
-55.0203597
0
LINE
8
0
10
283.366883
20
-55.0203597
11
289.3754064
21
-71.9879065
0
LINE
8
0
10
282.3771668
20
-110.9388733
11
298.9273986
21
-104.2521456
0
LINE
8
0
10
298.9273986
20
-104.2521456
11
292.18448
21
-87.5628363
0
LINE
8
0
10
292.18448
20
-87.5628363
11
275.6342482
21
-94.249564
0
LINE
8
0
10
275.6342482
20
-94.249564
11
282.3771668
21
-110.9388733
0
LINE
8
0
10
275.4469448
20
-93.785972
11
291.9971766
21
-87.0992443
0
LINE
8
0
10
291.9971766
20
-87.0992443
11
285.254258
21
-70.409935
0
LINE
8
0
10
285.254258
20
-70.409935
11
268.7040262
21
-77.0966627
0
LINE
8
0
10
268.7040262
20
-77.0966627
11
275.4469448
21
-93.785972
0
LINE
8
0
10
268.5167228
20
-76.6330707
11
285.0669546
21
-69.946343
0
LINE
8
0
10
285.0669546
20
-69.946343
11
278.324036
21
-53.2570337
0
LINE
8
0
10
278.324036
20
-53.2570337
11
261.7738042
21
-59.9437614
0
LINE
8
0
10
261.7738042
20
-59.9437614
11
268.5167228
21
-76.6330707
0
LINE
8
0
10
265.5098868
20
-119.9107663
11
282.0601186
21
-113.2240386
0
LINE
8
0
10
282.0601186
20
-113.2240386
11
275.3172
21
-96.5347293
0
LINE
8
0
10
275.3172
20
-96.5347293
11
258.7669682
21
-103.221457
0
LINE
8
0
10
258.7669682
20
-103.221457
11
265.5098868
21
-119.9107663
0
LINE
8
0
10
258.5796648
20
-102.757865
11
275.1298966
21
-96.0711373
0
LINE
8
0
10
275.1298966
20
-96.0711373
11
268.386978
21
-79.381828
0
LINE
8
0
10
268.386978
20
-79.381828
11
251.8367462
21
-86.0685557
0
LINE
8
0
10
251.8367462
20
-86.0685557
11
258.5796648
21
-102.757865
0
LINE
8
0
10
251.6494428
20
-85.6049637
11
268.1996746
21
-78.918236
0
LINE
8
0
10
268.1996746
20
-78.918236
11
261.456756
21
-62.2289267
0
LINE
8
0
10
261.456756
20
-62.2289267
11
244.9065242
21
-68.9156544
0
LINE
8
0
10
244.9065242
20
-68.9156544
11
251.6494428
21
-85.6049637
0
LINE
8
0
10
249.1061986
20
-128.6953561
11
265.6564304
21
-122.0086284
0
LINE
8
0
10
265.6564304
20
-122.0086284
11
258.9135118
21
-105.3193191
0
LINE
8
0
10
258.9135118
20
-105.3193191
11
242.36328
21
-112.0060468
0
LINE
8
0
10
242.36328
20
-112.0060468
11
249.1061986
21
-128.6953561
0
LINE
8
0
10
242.1759766
20
-111.5424548
11
258.7262084
21
-104.8557271
0
LINE
8
0
10
258.7262084
20
-104.8557271
11
251.9832898
21
-88.1664178
0
LINE
8
0
10
251.9832898
20
-88.1664178
11
235.433058
21
-94.8531455
0
LINE
8
0
10
235.433058
20
-94.8531455
11
242.1759766
21
-111.5424548
0
LINE
8
0
10
235.2457546
20
-94.3895535
11
251.7959864
21
-87.7028258
0
LINE
8
0
10
251.7959864
20
-87.7028258
11
245.0530678
21
-71.0135165
0
LINE
8
0
10
245.0530678
20
-71.0135165
11
228.502836
21
-77.7002442
0
LINE
8
0
10
228.502836
20
-77.7002442
11
235.2457546
21
-94.3895535
0
LINE
8
0
10
160.2301289
20
-145.1212597
11
173.8069325
21
-155.3521151
0
LINE
8
0
10
173.8069325
20
-155.3521151
11
183.5262451
21
-142.4541517
0
LINE
8
0
10
183.5262451
20
-142.4541517
11
169.9494415
21
-132.2232963
0
LINE
8
0
10
169.9494415
20
-132.2232963
11
160.2301289
21
-145.1212597
0
LINE
8
0
10
172.1059481
20
-159.2963452
11
185.6827517
21
-169.5272006
0
LINE
8
0
10
185.6827517
20
-169.5272006
11
195.4020643
21
-156.6292372
0
LINE
8
0
10
195.4020643
20
-156.6292372
11
181.8252607
21
-146.3983818
0
LINE
8
0
10
181.8252607
20
-146.3983818
11
172.1059481
21
-159.2963452
0
LINE
8
0
10
255.4451747
20
-155.3521151
11
269.0219783
21
-145.1212597
0
LINE
8
0
10
269.0219783
20
-145.1212597
11
259.3026657
21
-132.2232963
0
LINE
8
0
10
259.3026657
20
-132.2232963
11
245.7258621
21
-142.4541517
0
LINE
8
0
10
245.7258621
20
-142.4541517
11
255.4451747
21
-155.3521151
0
LINE
8
0
10
243.5693555
20
-169.5272006
11
257.1461591
21
-159.2963452
0
LINE
8
0
10
257.1461591
20
-159.2963452
11
247.4268465
21
-146.3983818
0
LINE
8
0
10
247.4268465
20
-146.3983818
11
233.8500429
21
-156.6292372
0
LINE
8
0
10
233.8500429
20
-156.6292372
11
243.5693555
21
-169.5272006
0
LINE
8
0
10
145.6546121
20
-131.2949501
11
157.6918386
21
-141.5757127
0
LINE
8
0
10
157.6918386
20
-141.5757127
11
167.9985791
21
-129.5080701
0
LINE
8
0
10
167.9985791
20
-129.5080701
11
155.9613526
21
-119.2273075
0
LINE
8
0
10
155.9613526
20
-119.2273075
11
145.6546121
21
-131.2949501
0
LINE
8
0
10
271.5602686
20
-141.5757127
11
283.5974951
21
-131.2949501
0
LINE
8
0
10
283.5974951
20
-131.2949501
11
273.2907546
21
-119.2273075
0
LINE
8
0
10
273.2907546
20
-119.2273075
11
261.2535281
21
-129.5080701
0
LINE
8
0
10
261.2535281
20
-129.5080701
11
271.5602686
21
-141.5757127
0
ENDSEC
0
EOF