0
SECTION
2
HEADER
9
$INSUNITS
70
4
0
ENDSEC
0
SECTION
2
TABLES
0
TABLE
2
LTYPE
0
LTYPE
72
65
70
64
2
CONTINUOUS
3
______
73
0
40
0
0
ENDTAB
0
TABLE
2
LAYER
0
ENDTAB
0
ENDSEC
0
SECTION
2
ENTITIES
0
LINE
8
0
10
208.6260536
20
-53.3610522
11
220.6260536
21
-53.3610522
0
LINE
8
0
10
220.6260536
20
-53.3610522
11
220.6260536
21
-47.3610522
0
LINE
8
0
10
208.6260536
20
-53.3610522
11
208.6260536
21
-47.3610522
0
LINE
8
0
10
198.4760536
20
-118.0890522
11
230.7760536
21
-118.0890522
0
LINE
8
0
10
230.7760536
20
-118.0890522
11
230.7760536
21
-104.7890522
0
LINE
8
0
10
198.4760536
20
-104.7890522
11
230.7760536
21
-104.7890522
0
LINE
8
0
10
198.4760536
20
-118.0890522
11
198.4760536
21
-104.7890522
0
LINE
8
0
10
87.6202597
20
-107.2306746
11
107.3220642
21
-112.3259077
0
LINE
8
0
10
107.3220642
20
-112.3259077
11
110.0342944
21
-101.8384917
0
LINE
8
0
10
87.6202597
20
-107.2306746
11
101.941996
21
-51.8526297
0
LINE
8
0
10
101.941996
20
-51.8526297
11
124.6638678
21
-57.7289053
0
LINE
8
0
10
110.0342944
20
-101.8384917
11
128.3369613
21
-108.319806
0
LINE
8
0
10
128.3369613
20
-108.319806
11
129.4783627
21
-105.0965879
0
LINE
8
0
10
128.2479593
20
-47.607743
11
148.9066584
21
-54.9233721
0
LINE
8
0
10
128.2479593
20
-47.607743
11
124.6638678
21
-57.7289053
0
LINE
8
0
10
129.4783627
20
-105.0965879
11
146.3701547
21
-111.9213149
0
LINE
8
0
10
168.3001369
20
-61.2464851
11
169.0493501
21
-59.3921174
0
LINE
8
0
10
169.0493501
20
-59.3921174
11
150.1811587
21
-51.7688732
0
LINE
8
0
10
150.1811587
20
-51.7688732
11
148.9066584
21
-54.9233721
0
LINE
8
0
10
145.6209415
20
-113.7756826
11
156.2715646
21
-118.0788137
0
LINE
8
0
10
146.3701547
20
-111.9213149
11
145.6209415
21
-113.7756826
0
LINE
8
0
10
185.1674169
20
-70.2183781
11
185.9166301
21
-68.3640104
0
LINE
8
0
10
185.9166301
20
-68.3640104
11
168.3001369
21
-61.2464851
0
LINE
8
0
10
172.3539808
20
-126.7336011
11
180.8928211
21
-130.1835166
0
LINE
8
0
10
180.8928211
20
-130.1835166
11
202.3203183
21
-77.1486002
0
LINE
8
0
10
202.3203183
20
-77.1486002
11
185.1674169
21
-70.2183781
0
LINE
8
0
10
321.930043
20
-112.3259077
11
341.6318475
21
-107.2306746
0
LINE
8
0
10
327.3101112
20
-51.8526297
11
341.6318475
21
-107.2306746
0
LINE
8
0
10
319.2178128
20
-101.8384917
11
321.930043
21
-112.3259077
0
LINE
8
0
10
304.5882394
20
-57.7289053
11
327.3101112
21
-51.8526297
0
LINE
8
0
10
300.9151459
20
-108.319806
11
319.2178128
21
-101.8384917
0
LINE
8
0
10
299.7737445
20
-105.0965879
11
300.9151459
21
-108.319806
0
LINE
8
0
10
304.5882394
20
-57.7289053
11
301.0041479
21
-47.607743
0
LINE
8
0
10
280.3454488
20
-54.9233721
11
301.0041479
21
-47.607743
0
LINE
8
0
10
282.8819525
20
-111.9213149
11
299.7737445
21
-105.0965879
0
LINE
8
0
10
280.3454488
20
-54.9233721
11
279.0709485
21
-51.7688732
0
LINE
8
0
10
279.0709485
20
-51.7688732
11
260.2027571
21
-59.3921174
0
LINE
8
0
10
260.2027571
20
-59.3921174
11
260.9519703
21
-61.2464851
0
LINE
8
0
10
272.9805426
20
-118.0788137
11
283.6311657
21
-113.7756826
0
LINE
8
0
10
283.6311657
20
-113.7756826
11
282.8819525
21
-111.9213149
0
LINE
8
0
10
260.9519703
20
-61.2464851
11
243.3354771
21
-68.3640104
0
LINE
8
0
10
243.3354771
20
-68.3640104
11
244.0846903
21
-70.2183781
0
LINE
8
0
10
248.3592861
20
-130.1835166
11
256.8981264
21
-126.7336011
0
LINE
8
0
10
226.9317889
20
-77.1486002
11
248.3592861
21
-130.1835166
0
LINE
8
0
10
244.0846903
20
-70.2183781
11
226.9317889
21
-77.1486002
0
LINE
8
0
10
157.673739
20
-145.7304565
11
172.6203865
21
-156.9935633
0
LINE
8
0
10
183.5708516
20
-145.1782041
11
186.082635
21
-141.8449549
0
LINE
8
0
10
186.082635
20
-141.8449549
11
169.8773326
21
-129.6333836
0
LINE
8
0
10
159.1244398
20
-143.8053115
11
157.673739
21
-145.7304565
0
LINE
8
0
10
170.1086031
20
-160.3268125
11
186.3608357
21
-172.5737482
0
LINE
8
0
10
186.3608357
20
-172.5737482
11
198.5174991
21
-156.4413109
0
LINE
8
0
10
198.5174991
20
-156.4413109
11
183.5708516
21
-145.1782041
0
LINE
8
0
10
172.6203865
20
-156.9935633
11
170.1086031
21
-160.3268125
0
LINE
8
0
10
256.6317207
20
-156.9935633
11
271.5783682
21
-145.7304565
0
LINE
8
0
10
271.5783682
20
-145.7304565
11
270.1276674
21
-143.8053115
0
LINE
8
0
10
259.3747746
20
-129.6333836
11
243.1694722
21
-141.8449549
0
LINE
8
0
10
243.1694722
20
-141.8449549
11
245.6812556
21
-145.1782041
0
LINE
8
0
10
242.8912715
20
-172.5737482
11
259.1435041
21
-160.3268125
0
LINE
8
0
10
259.1435041
20
-160.3268125
11
256.6317207
21
-156.9935633
0
LINE
8
0
10
245.6812556
20
-145.1782041
11
230.7346081
21
-156.4413109
0
LINE
8
0
10
230.7346081
20
-156.4413109
11
242.8912715
21
-172.5737482
0
LINE
8
0
10
144.7699773
20
-131.5454422
11
159.1244398
21
-143.8053115
0
LINE
8
0
10
144.7699773
20
-131.5454422
11
156.2715646
21
-118.0788137
0
LINE
8
0
10
270.1276674
20
-143.8053115
11
284.4821299
21
-131.5454422
0
LINE
8
0
10
272.9805426
20
-118.0788137
11
284.4821299
21
-131.5454422
0
LINE
8
0
10
169.8773326
20
-129.6333836
11
172.3539808
21
-126.7336011
0
LINE
8
0
10
256.8981264
20
-126.7336011
11
259.3747746
21
-129.6333836
0
LINE
8
0
10
220.6260536
20
-47.3610522
11
208.6260536
21
-47.3610522
0
LINE
8
0
10
227.2260536
20
-57.2492522
11
238.0260536
21
-57.2492522
0
LINE
8
0
10
238.0260536
20
-57.2492522
11
238.0260536
21
-50.6992522
0
LINE
8
0
10
238.0260536
20
-50.6992522
11
227.2260536
21
-50.6992522
0
LINE
8
0
10
227.2260536
20
-50.6992522
11
227.2260536
21
-57.2492522
0
LINE
8
0
10
113.9760536
20
-133.0255522
11
123.7760536
21
-133.0255522
0
LINE
8
0
10
123.7760536
20
-133.0255522
11
123.7760536
21
-124.6255522
0
LINE
8
0
10
123.7760536
20
-124.6255522
11
113.9760536
21
-124.6255522
0
LINE
8
0
10
113.9760536
20
-124.6255522
11
113.9760536
21
-133.0255522
0
LINE
8
0
10
89.1058623
20
-106.4786872
11
106.3872977
21
-110.9479703
0
LINE
8
0
10
106.3872977
20
-110.9479703
11
110.8941377
21
-93.5213128
0
LINE
8
0
10
110.8941377
20
-93.5213128
11
93.6127023
21
-89.0520297
0
LINE
8
0
10
93.6127023
20
-89.0520297
11
89.1058623
21
-106.4786872
0
LINE
8
0
10
93.7378924
20
-88.5679559
11
111.0193278
21
-93.037239
0
LINE
8
0
10
111.0193278
20
-93.037239
11
115.5261678
21
-75.6105815
0
LINE
8
0
10
115.5261678
20
-75.6105815
11
98.2447324
21
-71.1412984
0
LINE
8
0
10
98.2447324
20
-71.1412984
11
93.7378924
21
-88.5679559
0
LINE
8
0
10
98.3699225
20
-70.6572246
11
115.6513579
21
-75.1265077
0
LINE
8
0
10
115.6513579
20
-75.1265077
11
120.1581979
21
-57.6998502
0
LINE
8
0
10
120.1581979
20
-57.6998502
11
102.8767625
21
-53.2305671
0
LINE
8
0
10
102.8767625
20
-53.2305671
11
98.3699225
21
-70.6572246
0
LINE
8
0
10
110.6996964
20
-100.9071893
11
127.525847
21
-106.8656417
0
LINE
8
0
10
127.525847
20
-106.8656417
11
133.5343704
21
-89.8980949
0
LINE
8
0
10
133.5343704
20
-89.8980949
11
116.7082198
21
-83.9396425
0
LINE
8
0
10
116.7082198
20
-83.9396425
11
110.6996964
21
-100.9071893
0
LINE
8
0
10
116.8751233
20
-83.4683217
11
133.7012739
21
-89.4267741
0
LINE
8
0
10
133.7012739
20
-89.4267741
11
139.7097973
21
-72.4592273
0
LINE
8
0
10
139.7097973
20
-72.4592273
11
122.8836467
21
-66.5007749
0
LINE
8
0
10
122.8836467
20
-66.5007749
11
116.8751233
21
-83.4683217
0
LINE
8
0
10
123.0505502
20
-66.0294541
11
139.8767008
21
-71.9879065
0
LINE
8
0
10
139.8767008
20
-71.9879065
11
145.8852242
21
-55.0203597
0
LINE
8
0
10
145.8852242
20
-55.0203597
11
129.0590736
21
-49.0619073
0
LINE
8
0
10
129.0590736
20
-49.0619073
11
123.0505502
21
-66.0294541
0
LINE
8
0
10
130.3247086
20
-104.2521456
11
146.8749404
21
-110.9388733
0
LINE
8
0
10
146.8749404
20
-110.9388733
11
153.617859
21
-94.249564
0
LINE
8
0
10
153.617859
20
-94.249564
11
137.0676272
21
-87.5628363
0
LINE
8
0
10
137.0676272
20
-87.5628363
11
130.3247086
21
-104.2521456
0
LINE
8
0
10
137.2549306
20
-87.0992443
11
153.8051624
21
-93.785972
0
LINE
8
0
10
153.8051624
20
-93.785972
11
160.548081
21
-77.0966627
0
LINE
8
0
10
160.548081
20
-77.0966627
11
143.9978492
21
-70.409935
0
LINE
8
0
10
143.9978492
20
-70.409935
11
137.2549306
21
-87.0992443
0
LINE
8
0
10
144.1851526
20
-69.946343
11
160.7353844
21
-76.6330707
0
LINE
8
0
10
160.7353844
20
-76.6330707
11
167.478303
21
-59.9437614
0
LINE
8
0
10
167.478303
20
-59.9437614
11
150.9280712
21
-53.2570337
0
LINE
8
0
10
150.9280712
20
-53.2570337
11
144.1851526
21
-69.946343
0
LINE
8
0
10
147.1919886
20
-113.2240386
11
163.7422204
21
-119.9107663
0
LINE
8
0
10
163.7422204
20
-119.9107663
11
170.485139
21
-103.221457
0
LINE
8
0
10
170.485139
20
-103.221457
11
153.9349072
21
-96.5347293
0
LINE
8
0
10
153.9349072
20
-96.5347293
11
147.1919886
21
-113.2240386
0
LINE
8
0
10
154.1222106
20
-96.0711373
11
170.6724424
21
-102.757865
0
LINE
8
0
10
170.6724424
20
-102.757865
11
177.415361
21
-86.0685557
0
LINE
8
0
10
177.415361
20
-86.0685557
11
160.8651292
21
-79.381828
0
LINE
8
0
10
160.8651292
20
-79.381828
11
154.1222106
21
-96.0711373
0
LINE
8
0
10
161.0524326
20
-78.918236
11
177.6026644
21
-85.6049637
0
LINE
8
0
10
177.6026644
20
-85.6049637
11
184.345583
21
-68.9156544
0
LINE
8
0
10
184.345583
20
-68.9156544
11
167.7953512
21
-62.2289267
0
LINE
8
0
10
167.7953512
20
-62.2289267
11
161.0524326
21
-78.918236
0
LINE
8
0
10
163.5956768
20
-122.0086284
11
180.1459086
21
-128.6953561
0
LINE
8
0
10
180.1459086
20
-128.6953561
11
186.8888272
21
-112.0060468
0
LINE
8
0
10
186.8888272
20
-112.0060468
11
170.3385954
21
-105.3193191
0
LINE
8
0
10
170.3385954
20
-105.3193191
11
163.5956768
21
-122.0086284
0
LINE
8
0
10
170.5258988
20
-104.8557271
11
187.0761306
21
-111.5424548
0
LINE
8
0
10
187.0761306
20
-111.5424548
11
193.8190492
21
-94.8531455
0
LINE
8
0
10
193.8190492
20
-94.8531455
11
177.2688174
21
-88.1664178
0
LINE
8
0
10
177.2688174
20
-88.1664178
11
170.5258988
21
-104.8557271
0
LINE
8
0
10
177.4561208
20
-87.7028258
11
194.0063526
21
-94.3895535
0
LINE
8
0
10
194.0063526
20
-94.3895535
11
200.7492712
21
-77.7002442
0
LINE
8
0
10
200.7492712
20
-77.7002442
11
184.1990394
21
-71.0135165
0
LINE
8
0
10
184.1990394
20
-71.0135165
11
177.4561208
21
-87.7028258
0
LINE
8
0
10
322.8648095
20
-110.9479703
11
340.1462449
21
-106.4786872
0
LINE
8
0
10
340.1462449
20
-106.4786872
11
335.6394049
21
-89.0520297
0
LINE
8
0
10
335.6394049
20
-89.0520297
11
318.3579695
21
-93.5213128
0
LINE
8
0
10
318.3579695
20
-93.5213128
11
322.8648095
21
-110.9479703
0
LINE
8
0
10
318.2327794
20
-93.037239
11
335.5142148
21
-88.5679559
0
LINE
8
0
10
335.5142148
20
-88.5679559
11
331.0073748
21
-71.1412984
0
LINE
8
0
10
331.0073748
20
-71.1412984
11
313.7259394
21
-75.6105815
0
LINE
8
0
10
313.7259394
20
-75.6105815
11
318.2327794
21
-93.037239
0
LINE
8
0
10
313.6007493
20
-75.1265077
11
330.8821847
21
-70.6572246
0
LINE
8
0
10
330.8821847
20
-70.6572246
11
326.3753447
21
-53.2305671
0
LINE
8
0
10
326.3753447
20
-53.2305671
11
309.0939093
21
-57.6998502
0
LINE
8
0
10
309.0939093
20
-57.6998502
11
313.6007493
21
-75.1265077
0
LINE
8
0
10
301.7262602
20
-106.8656417
11
318.5524108
21
-100.9071893
0
LINE
8
0
10
318.5524108
20
-100.9071893
11
312.5438874
21
-83.9396425
0
LINE
8
0
10
312.5438874
20
-83.9396425
11
295.7177368
21
-89.8980949
0
LINE
8
0
10
295.7177368
20
-89.8980949
11
301.7262602
21
-106.8656417
0
LINE
8
0
10
295.5508333
20
-89.4267741
11
312.3769839
21
-83.4683217
0
LINE
8
0
10
312.3769839
20
-83.4683217
11
306.3684605
21
-66.5007749
0
LINE
8
0
10
306.3684605
20
-66.5007749
11
289.5423099
21
-72.4592273
0
LINE
8
0
10
289.5423099
20
-72.4592273
11
295.5508333
21
-89.4267741
0
LINE
8
0
10
289.3754064
20
-71.9879065
11
306.201557
21
-66.0294541
0
LINE
8
0
10
306.201557
20
-66.0294541
11
300.1930336
21
-49.0619073
0
LINE
8
0
10
300.1930336
20
-49.0619073
11
283.366883
21
-55.0203597
0
LINE
8
0
10
283.366883
20
-55.0203597
11
289.3754064
21
-71.9879065
0
LINE
8
0
10
282.3771668
20
-110.9388733
11
298.9273986
21
-104.2521456
0
LINE
8
0
10
298.9273986
20
-104.2521456
11
292.18448
21
-87.5628363
0
LINE
8
0
10
292.18448
20
-87.5628363
11
275.6342482
21
-94.249564
0
LINE
8
0
10
275.6342482
20
-94.249564
11
282.3771668
21
-110.9388733
0
LINE
8
0
10
275.4469448
20
-93.785972
11
291.9971766
21
-87.0992443
0
LINE
8
0
10
291.9971766
20
-87.0992443
11
285.254258
21
-70.409935
0
LINE
8
0
10
285.254258
20
-70.409935
11
268.7040262
21
-77.0966627
0
LINE
8
0
10
268.7040262
20
-77.0966627
11
275.4469448
21
-93.785972
0
LINE
8
0
10
268.5167228
20
-76.6330707
11
285.0669546
21
-69.946343
0
LINE
8
0
10
285.0669546
20
-69.946343
11
278.324036
21
-53.2570337
0
LINE
8
0
10
278.324036
20
-53.2570337
11
261.7738042
21
-59.9437614
0
LINE
8
0
10
261.7738042
20
-59.9437614
11
268.5167228
21
-76.6330707
0
LINE
8
0
10
265.5098868
20
-119.9107663
11
282.0601186
21
-113.2240386
0
LINE
8
0
10
282.0601186
20
-113.2240386
11
275.3172
21
-96.5347293
0
LINE
8
0
10
275.3172
20
-96.5347293
11
258.7669682
21
-103.221457
0
LINE
8
0
10
258.7669682
20
-103.221457
11
265.5098868
21
-119.9107663
0
LINE
8
0
10
258.5796648
20
-102.757865
11
275.1298966
21
-96.0711373
0
LINE
8
0
10
275.1298966
20
-96.0711373
11
268.386978
21
-79.381828
0
LINE
8
0
10
268.386978
20
-79.381828
11
251.8367462
21
-86.0685557
0
LINE
8
0
10
251.8367462
20
-86.0685557
11
258.5796648
21
-102.757865
0
LINE
8
0
10
251.6494428
20
-85.6049637
11
268.1996746
21
-78.918236
0
LINE
8
0
10
268.1996746
20
-78.918236
11
261.456756
21
-62.2289267
0
LINE
8
0
10
261.456756
20
-62.2289267
11
244.9065242
21
-68.9156544
0
LINE
8
0
10
244.9065242
20
-68.9156544
11
251.6494428
21
-85.6049637
0
LINE
8
0
10
249.1061986
20
-128.6953561
11
265.6564304
21
-122.0086284
0
LINE
8
0
10
265.6564304
20
-122.0086284
11
258.9135118
21
-105.3193191
0
LINE
8
0
10
258.9135118
20
-105.3193191
11
242.36328
21
-112.0060468
0
LINE
8
0
10
242.36328
20
-112.0060468
11
249.1061986
21
-128.6953561
0
LINE
8
0
10
242.1759766
20
-111.5424548
11
258.7262084
21
-104.8557271
0
LINE
8
0
10
258.7262084
20
-104.8557271
11
251.9832898
21
-88.1664178
0
LINE
8
0
10
251.9832898
20
-88.1664178
11
235.433058
21
-94.8531455
0
LINE
8
0
10
235.433058
20
-94.8531455
11
242.1759766
21
-111.5424548
0
LINE
8
0
10
235.2457546
20
-94.3895535
11
251.7959864
21
-87.7028258
0
LINE
8
0
10
251.7959864
20
-87.7028258
11
245.0530678
21
-71.0135165
0
LINE
8
0
10
245.0530678
20
-71.0135165
11
228.502836
21
-77.7002442
0
LINE
8
0
10
228.502836
20
-77.7002442
11
235.2457546
21
-94.3895535
0
LINE
8
0
10
159.1887805
20
-145.7138967
11
173.5242879
21
-156.5164763
0
LINE
8
0
10
173.5242879
20
-156.5164763
11
184.5675935
21
-141.8615147
0
LINE
8
0
10
184.5675935
20
-141.8615147
11
170.2320861
21
-131.0589351
0
LINE
8
0
10
170.2320861
20
-131.0589351
11
159.1887805
21
-145.7138967
0
LINE
8
0
10
171.6236446
20
-160.3102527
11
185.959152
21
-171.1128323
0
LINE
8
0
10
185.959152
20
-171.1128323
11
197.0024576
21
-156.4578707
0
LINE
8
0
10
197.0024576
20
-156.4578707
11
182.6669502
21
-145.6552911
0
LINE
8
0
10
182.6669502
20
-145.6552911
11
171.6236446
21
-160.3102527
0
LINE
8
0
10
255.7278193
20
-156.5164763
11
270.0633267
21
-145.7138967
0
LINE
8
0
10
270.0633267
20
-145.7138967
11
259.0200211
21
-131.0589351
0
LINE
8
0
10
259.0200211
20
-131.0589351
11
244.6845137
21
-141.8615147
0
LINE
8
0
10
244.6845137
20
-141.8615147
11
255.7278193
21
-156.5164763
0
LINE
8
0
10
243.2929552
20
-171.1128323
11
257.6284626
21
-160.3102527
0
LINE
8
0
10
257.6284626
20
-160.3102527
11
246.585157
21
-145.6552911
0
LINE
8
0
10
246.585157
20
-145.6552911
11
232.2496496
21
-156.4578707
0
LINE
8
0
10
232.2496496
20
-156.4578707
11
243.2929552
21
-171.1128323
0
LINE
8
0
10
145.3450147
20
-131.6420444
11
157.3974493
21
-141.935796
0
LINE
8
0
10
157.3974493
20
-141.935796
11
168.3081765
21
-129.1609758
0
LINE
8
0
10
168.3081765
20
-129.1609758
11
156.2557419
21
-118.8672242
0
LINE
8
0
10
156.2557419
20
-118.8672242
11
145.3450147
21
-131.6420444
0
LINE
8
0
10
271.8546579
20
-141.935796
11
283.9070925
21
-131.6420444
0
LINE
8
0
10
283.9070925
20
-131.6420444
11
272.9963653
21
-118.8672242
0
LINE
8
0
10
272.9963653
20
-118.8672242
11
260.9439307
21
-129.1609758
0
LINE
8
0
10
260.9439307
20
-129.1609758
11
271.8546579
21
-141.935796
0
ENDSEC
0
EOF