0
SECTION
2
HEADER
9
$INSUNITS
70
4
0
ENDSEC
0
SECTION
2
TABLES
0
TABLE
2
LTYPE
0
LTYPE
72
65
70
64
2
CONTINUOUS
3
______
73
0
40
0
0
ENDTAB
0
TABLE
2
LAYER
0
ENDTAB
0
ENDSEC
0
SECTION
2
ENTITIES
0
LINE
8
0
10
91.4703065
20
-105.0243735
11
105.0243735
21
-108.5296935
0
LINE
8
0
10
105.0243735
20
-108.5296935
11
108.5296935
21
-94.9756265
0
LINE
8
0
10
108.5296935
20
-94.9756265
11
94.9756265
21
-91.4703065
0
LINE
8
0
10
94.9756265
20
-91.4703065
11
91.4703065
21
-105.0243735
0
LINE
8
0
10
96.1023366
20
-87.1136422
11
109.6564036
21
-90.6189622
0
LINE
8
0
10
109.6564036
20
-90.6189622
11
113.1617236
21
-77.0648952
0
LINE
8
0
10
113.1617236
20
-77.0648952
11
99.6076566
21
-73.5595752
0
LINE
8
0
10
99.6076566
20
-73.5595752
11
96.1023366
21
-87.1136422
0
LINE
8
0
10
100.7343667
20
-69.2029109
11
114.2884337
21
-72.7082309
0
LINE
8
0
10
114.2884337
20
-72.7082309
11
117.7937537
21
-59.1541639
0
LINE
8
0
10
117.7937537
20
-59.1541639
11
104.2396867
21
-55.6488439
0
LINE
8
0
10
104.2396867
20
-55.6488439
11
100.7343667
21
-69.2029109
0
LINE
8
0
10
113.1818949
20
-99.6644845
11
126.3788758
21
-104.3377806
0
LINE
8
0
10
126.3788758
20
-104.3377806
11
131.0521719
21
-91.1407997
0
LINE
8
0
10
131.0521719
20
-91.1407997
11
117.855191
21
-86.4675036
0
LINE
8
0
10
117.855191
20
-86.4675036
11
113.1818949
21
-99.6644845
0
LINE
8
0
10
119.3573218
20
-82.2256169
11
132.5543027
21
-86.898913
0
LINE
8
0
10
132.5543027
20
-86.898913
11
137.2275988
21
-73.7019321
0
LINE
8
0
10
137.2275988
20
-73.7019321
11
124.0306179
21
-69.028636
0
LINE
8
0
10
124.0306179
20
-69.028636
11
119.3573218
21
-82.2256169
0
LINE
8
0
10
125.5327487
20
-64.7867493
11
138.7297296
21
-69.4600454
0
LINE
8
0
10
138.7297296
20
-69.4600454
11
143.4030257
21
-56.2630645
0
LINE
8
0
10
143.4030257
20
-56.2630645
11
130.2060448
21
-51.5897684
0
LINE
8
0
10
130.2060448
20
-51.5897684
11
125.5327487
21
-64.7867493
0
LINE
8
0
10
132.8587507
20
-103.1188956
11
145.8393246
21
-108.3633879
0
LINE
8
0
10
145.8393246
20
-108.3633879
11
151.0838169
21
-95.382814
0
LINE
8
0
10
151.0838169
20
-95.382814
11
138.103243
21
-90.1383217
0
LINE
8
0
10
138.103243
20
-90.1383217
11
132.8587507
21
-103.1188956
0
LINE
8
0
10
139.7889727
20
-85.9659943
11
152.7695466
21
-91.2104866
0
LINE
8
0
10
152.7695466
20
-91.2104866
11
158.0140389
21
-78.2299127
0
LINE
8
0
10
158.0140389
20
-78.2299127
11
145.033465
21
-72.9854204
0
LINE
8
0
10
145.033465
20
-72.9854204
11
139.7889727
21
-85.9659943
0
LINE
8
0
10
146.7191947
20
-68.813093
11
159.6997686
21
-74.0575853
0
LINE
8
0
10
159.6997686
20
-74.0575853
11
164.9442609
21
-61.0770114
0
LINE
8
0
10
164.9442609
20
-61.0770114
11
151.963687
21
-55.8325191
0
LINE
8
0
10
151.963687
20
-55.8325191
11
146.7191947
21
-68.813093
0
LINE
8
0
10
149.7260307
20
-112.0907886
11
162.7066046
21
-117.3352809
0
LINE
8
0
10
162.7066046
20
-117.3352809
11
167.9510969
21
-104.354707
0
LINE
8
0
10
167.9510969
20
-104.354707
11
154.970523
21
-99.1102147
0
LINE
8
0
10
154.970523
20
-99.1102147
11
149.7260307
21
-112.0907886
0
LINE
8
0
10
156.6562527
20
-94.9378873
11
169.6368266
21
-100.1823796
0
LINE
8
0
10
169.6368266
20
-100.1823796
11
174.8813189
21
-87.2018057
0
LINE
8
0
10
174.8813189
20
-87.2018057
11
161.900745
21
-81.9573134
0
LINE
8
0
10
161.900745
20
-81.9573134
11
156.6562527
21
-94.9378873
0
LINE
8
0
10
163.5864747
20
-77.784986
11
176.5670486
21
-83.0294783
0
LINE
8
0
10
176.5670486
20
-83.0294783
11
181.8115409
21
-70.0489044
0
LINE
8
0
10
181.8115409
20
-70.0489044
11
168.830967
21
-64.8044121
0
LINE
8
0
10
168.830967
20
-64.8044121
11
163.5864747
21
-77.784986
0
LINE
8
0
10
166.1297189
20
-120.8753784
11
179.1102928
21
-126.1198707
0
LINE
8
0
10
179.1102928
20
-126.1198707
11
184.3547851
21
-113.1392968
0
LINE
8
0
10
184.3547851
20
-113.1392968
11
171.3742112
21
-107.8948045
0
LINE
8
0
10
171.3742112
20
-107.8948045
11
166.1297189
21
-120.8753784
0
LINE
8
0
10
173.0599409
20
-103.7224771
11
186.0405148
21
-108.9669694
0
LINE
8
0
10
186.0405148
20
-108.9669694
11
191.2850071
21
-95.9863955
0
LINE
8
0
10
191.2850071
20
-95.9863955
11
178.3044332
21
-90.7419032
0
LINE
8
0
10
178.3044332
20
-90.7419032
11
173.0599409
21
-103.7224771
0
LINE
8
0
10
179.9901629
20
-86.5695758
11
192.9707368
21
-91.8140681
0
LINE
8
0
10
192.9707368
20
-91.8140681
11
198.2152291
21
-78.8334942
0
LINE
8
0
10
198.2152291
20
-78.8334942
11
185.2346552
21
-73.5890019
0
LINE
8
0
10
185.2346552
20
-73.5890019
11
179.9901629
21
-86.5695758
0
LINE
8
0
10
324.2277337
20
-108.5296935
11
337.7818007
21
-105.0243735
0
LINE
8
0
10
337.7818007
20
-105.0243735
11
334.2764807
21
-91.4703065
0
LINE
8
0
10
334.2764807
20
-91.4703065
11
320.7224137
21
-94.9756265
0
LINE
8
0
10
320.7224137
20
-94.9756265
11
324.2277337
21
-108.5296935
0
LINE
8
0
10
319.5957036
20
-90.6189622
11
333.1497706
21
-87.1136422
0
LINE
8
0
10
333.1497706
20
-87.1136422
11
329.6444506
21
-73.5595752
0
LINE
8
0
10
329.6444506
20
-73.5595752
11
316.0903836
21
-77.0648952
0
LINE
8
0
10
316.0903836
20
-77.0648952
11
319.5957036
21
-90.6189622
0
LINE
8
0
10
314.9636735
20
-72.7082309
11
328.5177405
21
-69.2029109
0
LINE
8
0
10
328.5177405
20
-69.2029109
11
325.0124205
21
-55.6488439
0
LINE
8
0
10
325.0124205
20
-55.6488439
11
311.4583535
21
-59.1541639
0
LINE
8
0
10
311.4583535
20
-59.1541639
11
314.9636735
21
-72.7082309
0
LINE
8
0
10
302.8732314
20
-104.3377806
11
316.0702123
21
-99.6644845
0
LINE
8
0
10
316.0702123
20
-99.6644845
11
311.3969162
21
-86.4675036
0
LINE
8
0
10
311.3969162
20
-86.4675036
11
298.1999353
21
-91.1407997
0
LINE
8
0
10
298.1999353
20
-91.1407997
11
302.8732314
21
-104.3377806
0
LINE
8
0
10
296.6978045
20
-86.898913
11
309.8947854
21
-82.2256169
0
LINE
8
0
10
309.8947854
20
-82.2256169
11
305.2214893
21
-69.028636
0
LINE
8
0
10
305.2214893
20
-69.028636
11
292.0245084
21
-73.7019321
0
LINE
8
0
10
292.0245084
20
-73.7019321
11
296.6978045
21
-86.898913
0
LINE
8
0
10
290.5223776
20
-69.4600454
11
303.7193585
21
-64.7867493
0
LINE
8
0
10
303.7193585
20
-64.7867493
11
299.0460624
21
-51.5897684
0
LINE
8
0
10
299.0460624
20
-51.5897684
11
285.8490815
21
-56.2630645
0
LINE
8
0
10
285.8490815
20
-56.2630645
11
290.5223776
21
-69.4600454
0
LINE
8
0
10
283.4127826
20
-108.3633879
11
296.3933565
21
-103.1188956
0
LINE
8
0
10
296.3933565
20
-103.1188956
11
291.1488642
21
-90.1383217
0
LINE
8
0
10
291.1488642
20
-90.1383217
11
278.1682903
21
-95.382814
0
LINE
8
0
10
278.1682903
20
-95.382814
11
283.4127826
21
-108.3633879
0
LINE
8
0
10
276.4825606
20
-91.2104866
11
289.4631345
21
-85.9659943
0
LINE
8
0
10
289.4631345
20
-85.9659943
11
284.2186422
21
-72.9854204
0
LINE
8
0
10
284.2186422
20
-72.9854204
11
271.2380683
21
-78.2299127
0
LINE
8
0
10
271.2380683
20
-78.2299127
11
276.4825606
21
-91.2104866
0
LINE
8
0
10
269.5523386
20
-74.0575853
11
282.5329125
21
-68.813093
0
LINE
8
0
10
282.5329125
20
-68.813093
11
277.2884202
21
-55.8325191
0
LINE
8
0
10
277.2884202
20
-55.8325191
11
264.3078463
21
-61.0770114
0
LINE
8
0
10
264.3078463
20
-61.0770114
11
269.5523386
21
-74.0575853
0
LINE
8
0
10
266.5455026
20
-117.3352809
11
279.5260765
21
-112.0907886
0
LINE
8
0
10
279.5260765
20
-112.0907886
11
274.2815842
21
-99.1102147
0
LINE
8
0
10
274.2815842
20
-99.1102147
11
261.3010103
21
-104.354707
0
LINE
8
0
10
261.3010103
20
-104.354707
11
266.5455026
21
-117.3352809
0
LINE
8
0
10
259.6152806
20
-100.1823796
11
272.5958545
21
-94.9378873
0
LINE
8
0
10
272.5958545
20
-94.9378873
11
267.3513622
21
-81.9573134
0
LINE
8
0
10
267.3513622
20
-81.9573134
11
254.3707883
21
-87.2018057
0
LINE
8
0
10
254.3707883
20
-87.2018057
11
259.6152806
21
-100.1823796
0
LINE
8
0
10
252.6850586
20
-83.0294783
11
265.6656325
21
-77.784986
0
LINE
8
0
10
265.6656325
20
-77.784986
11
260.4211402
21
-64.8044121
0
LINE
8
0
10
260.4211402
20
-64.8044121
11
247.4405663
21
-70.0489044
0
LINE
8
0
10
247.4405663
20
-70.0489044
11
252.6850586
21
-83.0294783
0
LINE
8
0
10
250.1418144
20
-126.1198707
11
263.1223883
21
-120.8753784
0
LINE
8
0
10
263.1223883
20
-120.8753784
11
257.877896
21
-107.8948045
0
LINE
8
0
10
257.877896
20
-107.8948045
11
244.8973221
21
-113.1392968
0
LINE
8
0
10
244.8973221
20
-113.1392968
11
250.1418144
21
-126.1198707
0
LINE
8
0
10
243.2115924
20
-108.9669694
11
256.1921663
21
-103.7224771
0
LINE
8
0
10
256.1921663
20
-103.7224771
11
250.947674
21
-90.7419032
0
LINE
8
0
10
250.947674
20
-90.7419032
11
237.9671001
21
-95.9863955
0
LINE
8
0
10
237.9671001
20
-95.9863955
11
243.2115924
21
-108.9669694
0
LINE
8
0
10
236.2813704
20
-91.8140681
11
249.2619443
21
-86.5695758
0
LINE
8
0
10
249.2619443
20
-86.5695758
11
244.017452
21
-73.5890019
0
LINE
8
0
10
244.017452
20
-73.5890019
11
231.0368781
21
-78.8334942
0
LINE
8
0
10
231.0368781
20
-78.8334942
11
236.2813704
21
-91.8140681
0
LINE
8
0
10
162.0750333
20
-145.1654491
11
173.2559304
21
-153.5908594
0
LINE
8
0
10
173.2559304
20
-153.5908594
11
181.6813407
21
-142.4099623
0
LINE
8
0
10
181.6813407
20
-142.4099623
11
170.5004436
21
-133.984552
0
LINE
8
0
10
170.5004436
20
-133.984552
11
162.0750333
21
-145.1654491
0
LINE
8
0
10
173.9508525
20
-159.3405346
11
185.1317496
21
-167.7659449
0
LINE
8
0
10
185.1317496
20
-167.7659449
11
193.5571599
21
-156.5850478
0
LINE
8
0
10
193.5571599
20
-156.5850478
11
182.3762628
21
-148.1596375
0
LINE
8
0
10
182.3762628
20
-148.1596375
11
173.9508525
21
-159.3405346
0
LINE
8
0
10
255.9961768
20
-153.5908594
11
267.1770739
21
-145.1654491
0
LINE
8
0
10
267.1770739
20
-145.1654491
11
258.7516636
21
-133.984552
0
LINE
8
0
10
258.7516636
20
-133.984552
11
247.5707665
21
-142.4099623
0
LINE
8
0
10
247.5707665
20
-142.4099623
11
255.9961768
21
-153.5908594
0
LINE
8
0
10
244.1203576
20
-167.7659449
11
255.3012547
21
-159.3405346
0
LINE
8
0
10
255.3012547
20
-159.3405346
11
246.8758444
21
-148.1596375
0
LINE
8
0
10
246.8758444
20
-148.1596375
11
235.6949473
21
-156.5850478
0
LINE
8
0
10
235.6949473
20
-156.5850478
11
244.1203576
21
-167.7659449
0
LINE
8
0
10
147.0986029
20
-131.1671197
11
157.5922052
21
-140.1295028
0
LINE
8
0
10
157.5922052
20
-140.1295028
11
166.5545883
21
-129.6359005
0
LINE
8
0
10
166.5545883
20
-129.6359005
11
156.060986
21
-120.6735174
0
LINE
8
0
10
156.060986
20
-120.6735174
11
147.0986029
21
-131.1671197
0
LINE
8
0
10
271.659902
20
-140.1295028
11
282.1535043
21
-131.1671197
0
LINE
8
0
10
282.1535043
20
-131.1671197
11
273.1911212
21
-120.6735174
0
LINE
8
0
10
273.1911212
20
-120.6735174
11
262.6975189
21
-129.6359005
0
LINE
8
0
10
262.6975189
20
-129.6359005
11
271.659902
21
-140.1295028
0
ENDSEC
0
EOF